# xmcd
#
# Track frame offsets: 
#        150
#        18082
#        54593
#        71096
#        76132
#        100518
#        127167
#        143517
#        196007
#        200906
#
# Disc length: 3158 seconds
#
# Revision: 0
# Processed by: cddbd v1.5.2PL0 Copyright (c) Steve Scherf et al.
# Submitted via: ExactAudioCopy v0.99pb4
#
DISCID=820c540a
DTITLE=Kevin Coyne - Bremen Dec 6 1983 1
DYEAR=1900
DGENRE=
TTITLE0=?
TTITLE1=The House On The Hill
TTITLE2=Singing The Blues
TTITLE3=Gina's Song Intro
TTITLE4=Gina's Song
TTITLE5=Black Cloud
TTITLE6=I Want My Crown
TTITLE7=Saviour
TTITLE8=Band Intro
TTITLE9=Sunday Morning Sunrise
EXTD=
EXTT0=
EXTT1=
EXTT2=
EXTT3=
EXTT4=
EXTT5=
EXTT6=
EXTT7=
EXTT8=
EXTT9=
PLAYORDER=
